<?xml version="1.0" encoding="utf-8"?>
<!-- Generator: Adobe Illustrator 19.0.0, SVG Export Plug-In . SVG Version: 6.00 Build 0)  -->
<svg version="1.1" id="Layer_1" xmlns="http://www.w3.org/2000/svg" xmlns:xlink="http://www.w3.org/1999/xlink" x="0px" y="0px"
	 viewBox="0 0 960 560" style="enable-background:new 0 0 960 560;" xml:space="preserve">
<style type="text/css">
	.st0{display:none;fill:#F7CE21;}
	.st1{fill:#FFFFFF;stroke:#000000;stroke-width:21;stroke-miterlimit:10;}
	.st2{fill:#FFFFFF;}
	.st3{display:none;fill:#FFB600;}
	.st4{fill:#1E1E1E;}
	.st5{font-family:'BerlinSansFBDemi-Bold';}
	.st6{font-size:100.5633px;}
	.st7{fill:none;stroke:#000000;stroke-width:4;stroke-linecap:round;stroke-miterlimit:10;}
</style>
<rect id="XMLID_10_" class="st0" width="960" height="560"/>
<path id="XMLID_2_" class="st1" d="M450.1,250.1c0,84.2-62.2,152.5-139,152.5s-139-68.3-139-152.5c0-20.3-75.7-31.5-69.1-49.3
	c20.7-55.7,149.9-103.2,208.1-103.2C387.8,97.6,450.1,165.9,450.1,250.1z"/>
<g id="XMLID_7_">
	<path id="XMLID_25_" class="st2" d="M198.7,426.1c-9.1,0-20.5-2.1-31.1-5.7c-26.5-9-45.2-31.8-48.7-59.5
		c-3.4-26.4,7.7-50.9,29.8-65.4c2.1-1.4,4.3-2.7,6.5-3.8c3.1-1.6,5.1-4.4,5.2-7.3c0-0.7-0.1-1.3-0.3-1.8
		c-4.8-12.1-1.7-20.7,1.8-25.7c6.4-9.4,18.3-12.8,26.5-12.8c0.7,0,1.4,0,2.1,0.1c7.1,0.5,13.6,4.3,17.9,10.5
		c5.6,8.1,6.9,19.1,3.7,31.1c1.8-0.2,3.6-0.5,5.5-0.5c0.4,0,0.7,0,1.1,0c8.9,0.5,17.4,4.8,23.3,11.8c5.4,6.5,8,14.7,7,22.4
		c-0.8,6.1-2.7,11.4-5.9,15.8c3.1,2.3,5,5,6.3,7.4c4.7,8.9,2.7,19.4-0.5,25.7c-2.1,4.1-5.9,8-10.6,11c1.7,2.7,3,5.7,3.7,8.9
		c1.7,7.2,0.5,15-2.9,19.8c-6.6,9.3-17.7,15-34,17.5C203.3,426,201.1,426.1,198.7,426.1z"/>
	<path id="XMLID_22_" d="M188.4,254.6c0.5,0,0.9,0,1.3,0c9.2,0.7,17.2,11.9,11.9,29.7c-3.1,10.4,0.8,12.5,5.9,12.5
		c3.4,0,7.3-0.9,10-0.9c0.2,0,0.4,0,0.5,0c12.2,0.7,21.8,11.9,20.5,22.4c-1.1,8.5-4.9,13.8-11,17.3c-1.8,1-2.1,4.5,0,4.8
		c17.6,2.3,15.1,17.4,12,23.4c-2.1,4.2-8.9,9.2-16,10.5c-2.4,0.4-2.2,4-0.1,5.2c10.6,5.8,9.9,18.8,7.2,22.6
		c-3.3,4.6-9.9,10.6-27,13.2c-1.4,0.2-3,0.3-4.9,0.3c-7,0-17.1-1.5-27.7-5.1c-46.9-15.9-57.9-79-16.6-106.2c1.8-1.2,3.6-2.3,5.6-3.3
		c6.2-3.2,10.7-9.4,10.9-16.3c0-2-0.2-4-1-5.9C163,261.2,178.9,254.6,188.4,254.6 M188.4,233.6c-11.3,0-26.4,4.6-35.1,17.4
		c-3.7,5.4-8.9,16.6-4.1,32c-2.1,1.2-4.3,2.4-6.3,3.7c-12.9,8.5-22.9,20.3-28.8,34.2c-5.5,12.8-7.4,27.1-5.6,41.3
		c4.1,31.7,25.4,57.8,55.7,68.1c11.7,4,24.2,6.2,34.5,6.2c2.9,0,5.6-0.2,8-0.6c19.2-3,32.6-10.1,40.9-21.7
		c5.2-7.2,6.9-18.1,4.6-28.2c-0.3-1.2-0.6-2.4-1-3.5c2.9-2.8,5.3-6,7-9.3c4.5-9,6.9-23,0.4-35.3c-0.7-1.2-1.5-2.7-2.7-4.2
		c1.7-3.9,2.8-8.2,3.4-12.8c1.3-10.6-2.1-21.7-9.4-30.4c-6.6-7.9-15.8-13.2-25.7-15c0.4-10-2.1-19.2-7.3-26.8
		c-6.1-8.8-15.5-14.3-25.8-15C190.3,233.7,189.3,233.6,188.4,233.6L188.4,233.6z"/>
</g>
<ellipse id="XMLID_3_" cx="245.3" cy="264.7" rx="13.9" ry="14.6"/>
<ellipse id="XMLID_4_" cx="404.3" cy="281.9" rx="13.9" ry="14.6"/>
<path id="XMLID_8_" d="M368.5,318.5c0,5.7-8,20.8-20.5,29.5s-29.6,11-45,7.5c-16-3.7-19.6-16.3-19.6-27.8S301,316,317.5,316
	S368.5,307.1,368.5,318.5z"/>
<image style="display:none;overflow:visible;" width="570" height="854" id="XMLID_1_" xlink:href="C:\Users\Xeda\Desktop\d9099837cbaf503e851d8c19cd6b5353.jpg"  transform="matrix(0.2592 0 0 0.258 760.9767 17.4851)">
</image>
<ellipse id="XMLID_15_" transform="matrix(1 -6.821393e-003 6.821393e-003 1 -2.1103 4.7621)" class="st3" cx="697" cy="311.7" rx="205.8" ry="13"/>
<text id="XMLID_9_" transform="matrix(1 0 0 1 487.4142 310.6369)" class="st4 st5 st6">Yay! Doc</text>
<path id="XMLID_11_" class="st2" d="M330.2,321.9c0,2.9-2.4,5.3-5.3,5.3c-2.9,0-5.3-2.4-5.3-5.3c0-2.9,3-2.4,5.9-2.4
	C328.5,319.5,330.2,319,330.2,321.9z"/>
<path id="XMLID_12_" class="st2" d="M344.9,318.4c0.9,3.4-1.1,6.9-4.6,7.9c-3.4,0.9-6.9-1.1-7.9-4.6c-0.9-3.4,2.8-3.8,6.2-4.8
	C342.2,316,344,314.9,344.9,318.4z"/>
<ellipse id="XMLID_14_" transform="matrix(0.9984 -5.644974e-002 5.644974e-002 0.9984 -19.0076 18.6011)" class="st2" cx="319.8" cy="345.8" rx="25.5" ry="8.3"/>
<path id="XMLID_13_" class="st2" d="M318.6,322.5c0,3.5-2.9,6.4-6.5,6.4s-6.4-2.9-6.4-6.5c0-3.5,3.7-3,7.2-3
	C316.5,319.5,318.6,319,318.6,322.5z"/>
<path id="XMLID_28_" class="st7" d="M237.7,173.3"/>
<path id="XMLID_20_" class="st7" d="M209,154"/>
</svg>
